<svg xmlns="http://www.w3.org/2000/svg" viewBox="0 0 720 300" font-family="-apple-system, Segoe UI, Roboto, Helvetica, Arial, sans-serif" role="img" aria-label="SWE-bench Verified scores, open-weight models versus Gemini 3.1 Pro, June 2026">
  <title>SWE-bench Verified — open weights reach the closed frontier (June 2026)</title>

  <!-- Title -->
  <text x="20" y="28" font-size="17" font-weight="700" fill="#888">SWE-bench Verified — open weights at the closed frontier</text>
  <text x="20" y="48" font-size="12" fill="#888">As reported, June 2026. Axis zoomed to 78–81% to show the cluster.</text>

  <!-- Gridlines + axis labels (78..81) -->
  <g stroke="#888" stroke-opacity="0.35" stroke-width="1">
    <line x1="210" y1="70" x2="210" y2="250"/>
    <line x1="370" y1="70" x2="370" y2="250"/>
    <line x1="530" y1="70" x2="530" y2="250"/>
    <line x1="690" y1="70" x2="690" y2="250"/>
  </g>
  <g font-size="11" fill="#888" text-anchor="middle">
    <text x="210" y="268">78%</text>
    <text x="370" y="268">79%</text>
    <text x="530" y="268">80%</text>
    <text x="690" y="268">81%</text>
  </g>

  <!-- Bars: open weights = teal, closed (Gemini) = mauve -->
  <!-- DeepSeek-V4-Pro-Max 80.6 -> len (80.6-78)*160=416 -->
  <rect x="210" y="80" width="416" height="30" rx="3" fill="#3aa6a0"/>
  <text x="200" y="100" font-size="12" fill="#888" text-anchor="end">DeepSeek-V4-Pro-Max</text>
  <text x="634" y="100" font-size="12" font-weight="700" fill="#888">80.6</text>

  <!-- Gemini 3.1 Pro 80.6 (closed) -->
  <rect x="210" y="122" width="416" height="30" rx="3" fill="#b07aa1"/>
  <text x="200" y="142" font-size="12" fill="#888" text-anchor="end">Gemini 3.1 Pro (closed)</text>
  <text x="634" y="142" font-size="12" font-weight="700" fill="#888">80.6</text>

  <!-- MiniMax M3 80.5 -> 400 -->
  <rect x="210" y="164" width="400" height="30" rx="3" fill="#3aa6a0"/>
  <text x="200" y="184" font-size="12" fill="#888" text-anchor="end">MiniMax M3</text>
  <text x="618" y="184" font-size="12" font-weight="700" fill="#888">80.5</text>

  <!-- Qwen3.7 Max 80.4 -> 384 -->
  <rect x="210" y="206" width="384" height="30" rx="3" fill="#3aa6a0"/>
  <text x="200" y="226" font-size="12" fill="#888" text-anchor="end">Qwen3.7 Max</text>
  <text x="602" y="226" font-size="12" font-weight="700" fill="#888">80.4</text>

  <!-- Legend -->
  <g font-size="11" fill="#888">
    <rect x="210" y="282" width="12" height="12" rx="2" fill="#3aa6a0"/>
    <text x="228" y="292">open weights</text>
    <rect x="330" y="282" width="12" height="12" rx="2" fill="#b07aa1"/>
    <text x="348" y="292">closed frontier</text>
  </g>
</svg>
